<?xml version="1.0" encoding="UTF-8" standalone="no"?>
<svg
   xmlns:dc="http://purl.org/dc/elements/1.1/"
   xmlns:cc="http://creativecommons.org/ns#"
   xmlns:rdf="http://www.w3.org/1999/02/22-rdf-syntax-ns#"
   xmlns:svg="http://www.w3.org/2000/svg"
   xmlns="http://www.w3.org/2000/svg"
   xmlns:sodipodi="http://sodipodi.sourceforge.net/DTD/sodipodi-0.dtd"
   xmlns:inkscape="http://www.inkscape.org/namespaces/inkscape"
   width="14"
   height="14"
   viewBox="0 0 3.7041665 3.7041669"
   version="1.1"
   id="svg3223"
   inkscape:version="1.0.2 (e86c8708, 2021-01-15)"
   sodipodi:docname="petro.svg">
  <defs
     id="defs3217" />
  <sodipodi:namedview
     id="base"
     pagecolor="#ffffff"
     bordercolor="#666666"
     borderopacity="1.0"
     inkscape:pageopacity="0.0"
     inkscape:pageshadow="2"
     inkscape:zoom="24.628804"
     inkscape:cx="7.0529283"
     inkscape:cy="16.523759"
     inkscape:document-units="mm"
     inkscape:current-layer="layer1"
     inkscape:document-rotation="0"
     showgrid="false"
     units="px"
     inkscape:window-width="1252"
     inkscape:window-height="1052"
     inkscape:window-x="75"
     inkscape:window-y="352"
     inkscape:window-maximized="0" />
  <metadata
     id="metadata3220">
    <rdf:RDF>
      <cc:Work
         rdf:about="">
        <dc:format>image/svg+xml</dc:format>
        <dc:type
           rdf:resource="http://purl.org/dc/dcmitype/StillImage" />
        <dc:title></dc:title>
      </cc:Work>
    </rdf:RDF>
  </metadata>
  <g
     inkscape:label="Layer 1"
     inkscape:groupmode="layer"
     id="layer1">
    <path
       style="display:inline;fill:#000000;fill-opacity:1;stroke:none;stroke-width:0.0264583;stroke-linecap:round;stroke-linejoin:round;stroke-miterlimit:4;stroke-dasharray:none;stroke-dashoffset:0;stroke-opacity:1"
       d="m 0.39687508,0.26458333 c -0.1465792,0 -0.2645834,0.11800417 -0.2645834,0.26458333 V 3.1749999 c 0,0.1465792 0.1180042,0.2645834 0.2645834,0.2645834 H 1.7197917 c 0.1465792,0 0.2645834,-0.1180042 0.2645834,-0.2645834 V 2.1166666 a 0.26458333,0.26458333 0 0 1 0.2645833,0.2645833 v 0.396875 a 0.396875,0.396875 0 0 0 0.396875,0.396875 0.396875,0.396875 0 0 0 0.396875,-0.396875 v -1.190625 h 0.2645833 c 0.1465792,0 0.2645833,-0.1180041 0.2645833,-0.2645833 V 1.0583333 0.79375003 H 3.3072917 V 0.26458333 H 3.0427084 v 0.5291667 H 2.778125 V 0.26458333 H 2.5135417 v 0.5291667 H 2.2489584 V 1.0583333 1.3229166 c 0,0.1465792 0.1180041,0.2645833 0.2645833,0.2645833 H 2.778125 v 1.190625 A 0.13229166,0.13229166 0 0 1 2.6458334,2.9104166 0.13229166,0.13229166 0 0 1 2.5135417,2.7781249 V 2.3812499 A 0.52916666,0.52916666 0 0 0 1.9843751,1.8520833 V 0.52916666 c 0,-0.14657916 -0.1180042,-0.26458333 -0.2645834,-0.26458333 z m 0,0.5291667 H 1.7197917 V 1.5874999 H 0.39687508 Z"
       id="charging_station"
       inkscape:label="#rect5978"
       inkscape:connector-curvature="0" />
  </g>
</svg>
