<?xml version="1.0" encoding="utf-8"?>
<!-- Svg Vector Icons : http://www.onlinewebfonts.com/icon -->
<!DOCTYPE svg PUBLIC "-//W3C//DTD SVG 1.1//EN" "http://www.w3.org/Graphics/SVG/1.1/DTD/svg11.dtd">
<svg version="1.1" xmlns="http://www.w3.org/2000/svg" xmlns:xlink="http://www.w3.org/1999/xlink" x="0px" y="0px" viewBox="0 0 1000 1000" enable-background="new 0 0 1000 1000" xml:space="preserve">
<metadata> Svg Vector Icons : http://www.onlinewebfonts.com/icon </metadata>
<g><g transform="translate(0.000000,511.000000) scale(0.100000,-0.100000)"><path d="M2590.9,3988.6C1295.2,3427.4,206.1,2958,170.6,2941.3l-62.6-27.1l-6.3-2800c-4.2-2754.1-4.2-2800,35.5-2822.9c189.9-100.1,4840.5-2086.4,4873.9-2080.2c23,4.2,665.6,277.5,1429.2,605.1c763.6,329.6,1852.7,797,2420.2,1041.1l1032.8,444.4l6.3,2793.7c2.1,1537.7-4.2,2804.1-12.5,2812.5c-10.4,10.4-540.4,242-1178.8,517.4c-638.5,275.4-1270.6,550.8-1404.1,615.5c-135.6,62.6-256.7,114.8-271.2,114.8c-14.6,0-475.7,192-1022.3,427.7C5463.9,4819,5002.8,5011,4984,5008.9C4963.1,5008.9,3888.6,4549.9,2590.9,3988.6z M5914.5,4426.8c484-210.7,878.4-383.9,876.3-386c-4.2-4.2-1032.8-444.4-2286.7-980.6l-2282.5-974.4l-895.1,381.8c-490.3,210.7-890.9,383.9-888.8,388.1c22.9,22.9,4556.7,1965.4,4573.4,1959.1C5023.7,4810.7,5428.4,4635.4,5914.5,4426.8z M7333.3,3811.3c96-43.8,164.8-87.6,156.5-96c-12.5-10.4-4362.7-1877.8-4506.6-1932c-29.2-10.4-507,179.4-507,202.4c0,6.3,1026.5,448.6,2280.4,984.8c2178.2,930.5,2280.4,972.3,2341,947.2C7130.9,3903.1,7237.3,3855.1,7333.3,3811.3z M8689.5,3233.4c840.8-363,882.5-381.8,826.2-406.9c-33.4-12.5-1064.1-452.7-2293-974.3L4992.4,900.8l-893,379.7c-490.3,210.7-884.6,388.1-876.3,396.4c8.4,8.3,930.5,406.8,2048.9,884.6c1118.3,477.8,2128.1,909.7,2242.9,959.8c114.7,48,227.4,89.7,248.3,89.7C7786.1,3613.1,8201.3,3442,8689.5,3233.4z M1226.4,2298.7l926.4-394.3l6.3-661.4c2.1-396.4,12.5-671.8,25-686.4c12.5-14.6,185.7-98.1,388.1-187.8c406.9-181.5,427.7-183.6,446.5-39.6c6.3,43.8,10.4,331.7,8.3,640.5c-2.1,306.7,0,557.1,2.1,557.1s421.5-177.3,930.5-394.3l926.4-396.4l6.3-2649.7l4.2-2651.8l-108.5,48c-60.5,27.1-1099.5,473.6-2305.5,995.2l-2197,947.2V59.9c0,1450,4.2,2635.1,8.3,2635.1C297.9,2695.1,717.3,2517.7,1226.4,2298.7z M9716,59.9v-2635.2l-2309.7-993.1l-2311.7-993.1l-6.3,2641.4c-2.1,1452.1,0,2643.5,4.2,2649.7c12.5,10.4,4588,1961.2,4608.9,1963.3C9709.7,2695.1,9716,1510,9716,59.9z M2670.2,1683.2l181.5-77.2v-571.7c0-444.4-6.3-571.7-25-569.6c-14.6,0-125.2,43.8-246.2,98.1l-219.1,100.2l-6.3,577.9l-4.2,577.9l66.8-27.1C2455.3,1775,2567.9,1727,2670.2,1683.2z"/><path d="M819.5-822.6c-29.2-27.1-33.4-123.1-33.4-736.5c0-644.7,2.1-707.3,37.6-736.5c62.6-56.3,2086.4-918,2136.5-909.7c43.8,6.3,48,18.8,58.4,152.3c16.7,225.3,6.3,1347.8-14.6,1366.6c-22.9,25-2094.8,897.2-2126.1,897.2C863.3-789.2,836.2-803.8,819.5-822.6z M1933.7-1423.5l907.6-383.9l6.3-588.4c4.2-467.4,0-586.3-20.9-577.9c-166.9,64.7-1806.8,778.2-1825.6,792.8c-20.9,14.6-27.1,158.6-27.1,590.4c0,448.6,6.3,567.5,27.1,561.3C1013.6-1035.4,1435-1212.8,1933.7-1423.5z"/><path d="M6669.8,923.7L5616.2,468.9l-6.3-2119.8l-4.2-2121.9l52.2-12.5c39.6-10.4,302.5,91.8,1080.8,419.4c563.3,239.9,1043.2,448.6,1064.1,465.3c33.4,29.2,35.5,156.5,35.5,2124c0,1873.6-4.2,2094.8-33.4,2124c-16.7,18.8-43.8,33.4-56.3,33.4C7733.9,1380.6,7249.8,1174.1,6669.8,923.7z M7650.4-820.5v-1948.7l-43.8-25c-50.1-25-1811-769.9-1825.6-769.9c-4.2,0-6.3,878.4-4.2,1952.9l6.3,1952.9l907.6,392.2c498.7,217,920.1,394.3,934.7,394.3C7644.2,1130.3,7650.4,727.6,7650.4-820.5z"/><path d="M6680.3,258.1C6392.3,135,6146.1,26.5,6131.5,18.2c-31.3-20.9-33.4-102.2,0-135.6c14.6-14.6,41.7-25,62.6-25c75.1,0,1103.7,442.3,1124.6,484c27.1,50.1-27.1,141.9-81.4,139.8C7218.5,479.3,6966.1,379.2,6680.3,258.1z"/><path d="M6482-346.9c-356.8-156.5-365.1-162.8-371.4-227.4c-4.2-50.1,4.2-70.9,37.6-89.7c35.5-18.8,98.1,0,392.2,125.2c192,83.5,369.3,162.7,396.4,179.4c81.4,52.2,48,177.3-45.9,173.2C6866-186.3,6682.3-259.3,6482-346.9z"/><path d="M6684.4-778.8c-285.8-118.9-532-227.4-548.7-242c-58.4-48-23-164.8,52.2-164.8c27.1,0,688.5,269.1,1007.7,411c68.8,31.3,125.2,70.9,133.5,93.9c14.6,45.9-43.8,121-93.9,121C7216.5-559.7,6968.2-657.8,6684.4-778.8z"/><path d="M6325.6-1450.6c-206.6-91.8-223.3-104.3-214.9-169c14.6-114.8,93.9-110.6,371.4,25c141.9,66.8,179.4,125.2,125.2,192C6569.7-1358.8,6509.2-1369.3,6325.6-1450.6z"/><path d="M6492.5-1893c-344.3-156.5-354.7-162.7-360.9-227.4c-6.3-52.2,2.1-70.9,41.7-87.6c39.6-18.8,102.2,2.1,402.7,135.6c194,87.6,365.1,169,379.7,181.5c33.4,27.1,35.5,104.3,2.1,137.7C6913.9-1709.4,6857.6-1728.1,6492.5-1893z"/><path d="M6682.3-2322.7c-285.8-121-532-229.5-546.6-242c-60.5-50.1-20.9-164.8,54.2-164.8c16.7,0,275.4,102.2,573.8,227.4c575.8,239.9,619.7,271.2,542.5,356.8c-20.9,22.9-52.2,41.7-70.9,41.7C7216.5-2103.7,6968.2-2203.8,6682.3-2322.7z"/></g></g>
</svg>