<?xml version="1.0" encoding="UTF-8" standalone="no"?>
<svg
   xmlns:dc="http://purl.org/dc/elements/1.1/"
   xmlns:cc="http://creativecommons.org/ns#"
   xmlns:rdf="http://www.w3.org/1999/02/22-rdf-syntax-ns#"
   xmlns:svg="http://www.w3.org/2000/svg"
   xmlns="http://www.w3.org/2000/svg"
   xmlns:sodipodi="http://sodipodi.sourceforge.net/DTD/sodipodi-0.dtd"
   xmlns:inkscape="http://www.inkscape.org/namespaces/inkscape"
   version="1.1"
   id="Capa_1"
   x="0px"
   y="0px"
   viewBox="0 0 12 12"
   xml:space="preserve"
   sodipodi:docname="arrow.svg"
   width="12"
   height="12"
   inkscape:version="1.0.2 (e86c8708, 2021-01-15)"><metadata
   id="metadata51"><rdf:RDF><cc:Work
       rdf:about=""><dc:format>image/svg+xml</dc:format><dc:type
         rdf:resource="http://purl.org/dc/dcmitype/StillImage" /><dc:title></dc:title></cc:Work></rdf:RDF></metadata><defs
   id="defs49" /><sodipodi:namedview
   pagecolor="#ffffff"
   bordercolor="#666666"
   borderopacity="1"
   objecttolerance="10"
   gridtolerance="10"
   guidetolerance="10"
   inkscape:pageopacity="0"
   inkscape:pageshadow="2"
   inkscape:window-width="1845"
   inkscape:window-height="1052"
   id="namedview47"
   showgrid="false"
   inkscape:zoom="8.1873571"
   inkscape:cx="16.487155"
   inkscape:cy="19.400926"
   inkscape:window-x="74"
   inkscape:window-y="374"
   inkscape:window-maximized="0"
   inkscape:current-layer="Capa_1" />
<g
   id="g14"
   transform="matrix(-0.02683107,0,0,-0.02683107,11.999994,11.999984)">
	<g
   id="g12">
		<path
   d="m 420.361,192.229 c -1.83,-0.297 -3.682,-0.434 -5.535,-0.41 H 99.305 l 6.88,-3.2 c 6.725,-3.183 12.843,-7.515 18.08,-12.8 l 88.48,-88.48 c 11.653,-11.124 13.611,-29.019 4.64,-42.4 -10.441,-14.259 -30.464,-17.355 -44.724,-6.914 -1.152,0.844 -2.247,1.764 -3.276,2.754 l -160,160 c -12.504,12.49 -12.515,32.751 -0.025,45.255 0.008,0.008 0.017,0.017 0.025,0.025 l 160,160 c 12.514,12.479 32.775,12.451 45.255,-0.063 0.982,-0.985 1.899,-2.033 2.745,-3.137 8.971,-13.381 7.013,-31.276 -4.64,-42.4 l -88.32,-88.64 c -4.695,-4.7 -10.093,-8.641 -16,-11.68 l -9.6,-4.32 h 314.24 c 16.347,0.607 30.689,-10.812 33.76,-26.88 2.829,-17.445 -9.019,-33.88 -26.464,-36.71 z"
   id="path10" />
	</g>
</g>
<g
   id="g16"
   transform="scale(-1)">
</g>
<g
   id="g18"
   transform="scale(-1)">
</g>
<g
   id="g20"
   transform="scale(-1)">
</g>
<g
   id="g22"
   transform="scale(-1)">
</g>
<g
   id="g24"
   transform="scale(-1)">
</g>
<g
   id="g26"
   transform="scale(-1)">
</g>
<g
   id="g28"
   transform="scale(-1)">
</g>
<g
   id="g30"
   transform="scale(-1)">
</g>
<g
   id="g32"
   transform="scale(-1)">
</g>
<g
   id="g34"
   transform="scale(-1)">
</g>
<g
   id="g36"
   transform="scale(-1)">
</g>
<g
   id="g38"
   transform="scale(-1)">
</g>
<g
   id="g40"
   transform="scale(-1)">
</g>
<g
   id="g42"
   transform="scale(-1)">
</g>
<g
   id="g44"
   transform="scale(-1)">
</g>
</svg>
