<?xml version="1.0" encoding="UTF-8" standalone="no"?>
<svg
   xmlns:dc="http://purl.org/dc/elements/1.1/"
   xmlns:cc="http://creativecommons.org/ns#"
   xmlns:rdf="http://www.w3.org/1999/02/22-rdf-syntax-ns#"
   xmlns:svg="http://www.w3.org/2000/svg"
   xmlns="http://www.w3.org/2000/svg"
   xmlns:sodipodi="http://sodipodi.sourceforge.net/DTD/sodipodi-0.dtd"
   xmlns:inkscape="http://www.inkscape.org/namespaces/inkscape"
   width="12"
   height="12"
   viewBox="0 0 3.175 3.1750002"
   version="1.1"
   id="svg3223"
   inkscape:version="1.0.2 (e86c8708, 2021-01-15)"
   sodipodi:docname="petro.svg">
  <defs
     id="defs3217" />
  <sodipodi:namedview
     id="base"
     pagecolor="#ffffff"
     bordercolor="#666666"
     borderopacity="1.0"
     inkscape:pageopacity="0.0"
     inkscape:pageshadow="2"
     inkscape:zoom="17.244005"
     inkscape:cx="25.152047"
     inkscape:cy="16.550695"
     inkscape:document-units="mm"
     inkscape:current-layer="layer1"
     inkscape:document-rotation="0"
     showgrid="false"
     units="px"
     inkscape:window-width="1841"
     inkscape:window-height="1052"
     inkscape:window-x="79"
     inkscape:window-y="352"
     inkscape:window-maximized="1"
     showguides="false" />
  <metadata
     id="metadata3220">
    <rdf:RDF>
      <cc:Work
         rdf:about="">
        <dc:format>image/svg+xml</dc:format>
        <dc:type
           rdf:resource="http://purl.org/dc/dcmitype/StillImage" />
        <dc:title></dc:title>
      </cc:Work>
    </rdf:RDF>
  </metadata>
  <g
     inkscape:label="Layer 1"
     inkscape:groupmode="layer"
     id="layer1">
    <path
       sodipodi:nodetypes="sssscssscssssssssssssss"
       inkscape:connector-curvature="0"
       inkscape:label="#rect4615"
       id="bus_stop_sign"
       d="m 1.0583334,1.5e-8 c -0.07329,0 -0.1322917,0.059002075 -0.1322917,0.132291655 V 1.4552083 c 0,0.07329 0.062762,0.1554692 0.1322917,0.1322917 h 0.396875 v 1.4552083 c 0,0.07329 0.059002,0.1322917 0.1322916,0.1322917 0.07329,0 0.1322917,-0.059002 0.1322917,-0.1322917 V 1.5875 h 0.396875 c 0.07329,0 0.1322916,-0.059002 0.1322916,-0.1322917 V 0.13229167 C 2.2489583,0.05900209 2.1899563,1.5e-8 2.1166667,1.5e-8 Z M 1.3229167,0.26458334 h 0.5291666 c 0.07329,0 0.1322917,0.0590021 0.1322917,0.13229167 V 0.66145834 C 1.984375,0.73474794 1.925373,0.79375 1.8520833,0.79375 H 1.3229167 c -0.07329,0 -0.1322917,-0.0590021 -0.1322917,-0.13229166 V 0.39687501 c 0,-0.0732896 0.059002,-0.13229167 0.1322917,-0.13229167 z"
       style="display:inline;fill:#000000;stroke:none;stroke-width:0.264583" />
  </g>
</svg>
