<?xml version="1.0" encoding="UTF-8" standalone="no"?>
<svg
   xmlns:dc="http://purl.org/dc/elements/1.1/"
   xmlns:cc="http://creativecommons.org/ns#"
   xmlns:rdf="http://www.w3.org/1999/02/22-rdf-syntax-ns#"
   xmlns:svg="http://www.w3.org/2000/svg"
   xmlns="http://www.w3.org/2000/svg"
   xmlns:sodipodi="http://sodipodi.sourceforge.net/DTD/sodipodi-0.dtd"
   xmlns:inkscape="http://www.inkscape.org/namespaces/inkscape"
   viewBox="0 0 30 30"
   height="30"
   width="30"
   version="1.1"
   id="svg837"
   sodipodi:docname="bus_stop.svg"
   inkscape:export-filename="/Users/clear/bitmap.png"
   inkscape:export-xdpi="100.26695"
   inkscape:export-ydpi="100.26695"
   inkscape:version="1.0.2 (e86c8708, 2021-01-15)">
  <metadata
     id="metadata843">
    <rdf:RDF>
      <cc:Work
         rdf:about="">
        <dc:format>image/svg+xml</dc:format>
        <dc:type
           rdf:resource="http://purl.org/dc/dcmitype/StillImage" />
        <dc:title></dc:title>
      </cc:Work>
    </rdf:RDF>
  </metadata>
  <defs
     id="defs841" />
  <sodipodi:namedview
     pagecolor="#ffffff"
     bordercolor="#666666"
     borderopacity="1"
     objecttolerance="10"
     gridtolerance="10"
     guidetolerance="10"
     inkscape:pageopacity="0"
     inkscape:pageshadow="2"
     inkscape:window-width="1845"
     inkscape:window-height="1027"
     id="namedview839"
     showgrid="false"
     inkscape:zoom="18.63291"
     inkscape:cx="2.952668"
     inkscape:cy="14.488237"
     inkscape:window-x="75"
     inkscape:window-y="377"
     inkscape:window-maximized="1"
     inkscape:current-layer="svg837"
     inkscape:document-rotation="0" />
  <rect
     style="visibility:hidden;fill:none;stroke:none"
     y="9"
     x="9"
     height="12"
     width="12"
     id="rect833" />
  <circle
     style="fill:#0092da;fill-opacity:1;stroke-width:1.72465"
     id="path845"
     cx="15"
     cy="15"
     r="9.1488819" />
  <path
     d="m 12,10 -1,1 v 8 h 0.65625 c 0,0 0.101149,1 0.81275,1 0.68913,0 0.781,-1 0.781,-1 h 3.5 c 0,0 0.114342,1 0.781,1 0.816468,0 0.81275,-1 0.81275,-1 H 19 v -8 l -1,-1 z m 1,1 h 4 v 1 h -4 z m -1,2 h 6 v 3 h -6 z m 0,4 h 1 v 1 h -1 z m 5,0 h 1 v 1 h -1 z"
     id="path835"
     style="fill:#ffffff;fill-opacity:1" />
</svg>
